<svg xmlns="http://www.w3.org/2000/svg" version="1.1" xmlns:xlink="http://www.w3.org/1999/xlink" xmlns:svgjs="http://svgjs.com/svgjs" width="1440" height="300" preserveAspectRatio="none" viewBox="0 0 1440 300"><g mask="url(&quot;#SvgjsMask1104&quot;)" fill="none"><rect width="1440" height="300" x="0" y="0" fill="rgba(255, 255, 255, 1)"></rect><path d="M1512 300L0 300 L0 148.1Q40.29 116.39, 72 156.68Q139.74 104.42, 192 172.16Q225.78 85.94, 312 119.71Q385.03 72.75, 432 145.78Q478.85 120.63, 504 167.48Q523.53 115.01, 576 134.54Q618.99 105.53, 648 148.52Q663.22 91.74, 720 106.95Q782.87 97.81, 792 160.68Q838.89 87.57, 912 134.46Q941.27 91.73, 984 121Q1059.26 76.26, 1104 151.53Q1130.89 106.43, 1176 133.32Q1226.4 111.72, 1248 162.12Q1259.24 101.36, 1320 112.59Q1364.63 85.22, 1392 129.84Q1462.13 79.97, 1512 150.09z" fill="rgba(0, 70, 67, 1)"></path><path d="M1512 300L0 300 L0 213.51Q33.58 175.09, 72 208.67Q107.7 124.37, 192 160.06Q241.24 137.3, 264 186.53Q293.17 143.7, 336 172.87Q366.95 131.82, 408 162.77Q488.89 123.66, 528 204.55Q577.2 133.75, 648 182.95Q694.26 109.21, 768 155.47Q846.91 114.38, 888 193.29Q938.52 123.81, 1008 174.33Q1067.27 161.6, 1080 220.86Q1132.87 153.73, 1200 206.6Q1252.99 139.59, 1320 192.58Q1373.38 125.96, 1440 179.34Q1487.8 155.14, 1512 202.94z" fill="rgba(71, 161, 156, 1)"></path><path d="M1488 300L0 300 L0 255.23Q65.05 200.28, 120 265.34Q135.88 209.21, 192 225.09Q262.3 175.39, 312 245.7Q329.51 191.21, 384 208.73Q426.18 178.91, 456 221.08Q537.86 182.94, 576 264.8Q595.46 212.25, 648 231.71Q696.12 159.82, 768 207.94Q821.86 189.8, 840 243.65Q912.97 196.62, 960 269.59Q976.73 214.31, 1032 231.04Q1098.11 177.14, 1152 243.25Q1174.67 193.93, 1224 216.6Q1267.45 188.06, 1296 231.51Q1361.35 176.86, 1416 242.21Q1440.86 195.06, 1488 219.92z" fill="rgba(42, 138, 134, 1)"></path><path d="M1560 300L0 300 L0 305.87Q8.95 242.82, 72 251.77Q139.14 198.92, 192 266.06Q275.52 229.58, 312 313.1Q318.12 247.22, 384 253.34Q453.98 203.31, 504 273.29Q548.13 245.42, 576 289.54Q622.16 215.7, 696 261.85Q761.89 207.75, 816 273.64Q893.86 231.5, 936 309.35Q962.96 264.31, 1008 291.27Q1035.23 246.5, 1080 273.73Q1162.78 236.51, 1200 319.29Q1226.85 226.13, 1320 252.98Q1395.77 208.75, 1440 284.51Q1515.2 239.72, 1560 314.92z" fill="rgba(2, 116, 112, 1)"></path></g><defs><mask id="SvgjsMask1104"><rect width="1440" height="300" fill="#ffffff"></rect></mask></defs></svg>