<?xml version="1.0" encoding="iso-8859-1"?>
<!-- Generator: Adobe Illustrator 19.0.0, SVG Export Plug-In . SVG Version: 6.00 Build 0)  -->
<svg version="1.1" id="Layer_1" xmlns="http://www.w3.org/2000/svg" xmlns:xlink="http://www.w3.org/1999/xlink" x="0px" y="0px"
	 viewBox="0 0 512 512" style="enable-background:new 0 0 512 512;" xml:space="preserve">
<polygon style="fill:#028d88;" points="256,154.417 10.199,31.007 10.199,164.616 256,288.027 501.801,164.616 501.801,31.007 "/>
<path style="fill:#f5f5f6;" d="M256,298.227c-1.569,0-3.136-0.361-4.576-1.084L5.623,173.732C2.175,172.001,0,168.475,0,164.617
	V31.008c0-3.538,1.833-6.822,4.845-8.681c3.012-1.856,6.769-2.021,9.931-0.434L256,143.005L497.224,21.893
	c3.162-1.589,6.92-1.424,9.931,0.434c3.011,1.857,4.845,5.142,4.845,8.681v133.61c0,3.857-2.175,7.384-5.623,9.115l-245.801,123.41
	C259.136,297.865,257.569,298.227,256,298.227z M20.398,158.325L256,276.615l235.602-118.289V47.541L260.576,163.532
	c-2.879,1.446-6.273,1.446-9.153,0L20.398,47.541V158.325z"/>
<polygon style="fill:#028d88;" points="256,347.384 10.199,223.974 10.199,357.583 256,480.993 501.801,357.583 501.801,223.974 "/>
<g>
	<path style="fill:#f5f5f6;" d="M256,491.193c-1.569,0-3.136-0.361-4.576-1.084L5.623,366.698C2.175,364.967,0,361.44,0,357.583
		v-133.61c0-3.538,1.833-6.822,4.845-8.681c3.012-1.856,6.769-2.021,9.931-0.434L256,335.971l241.224-121.112
		c3.162-1.589,6.92-1.424,9.931,0.434c3.011,1.857,4.845,5.142,4.845,8.681v133.61c0,3.857-2.175,7.384-5.623,9.115l-245.801,123.41
		C259.136,490.831,257.569,491.193,256,491.193z M20.398,351.291L256,469.581l235.602-118.289V240.506L260.576,356.498
		c-2.879,1.446-6.273,1.446-9.153,0L20.398,240.506V351.291z"/>
	<path style="fill:#f5f5f6;" d="M414.096,372.046c-3.736,0-7.332-2.06-9.123-5.626c-2.527-5.034-0.495-11.163,4.54-13.691
		l6.456-3.241c5.033-2.528,11.163-0.494,13.69,4.54c2.527,5.033,0.495,11.163-4.54,13.691l-6.456,3.241
		C417.195,371.697,415.634,372.046,414.096,372.046z"/>
	<path style="fill:#f5f5f6;" d="M256.008,451.418c-3.735,0-7.332-2.059-9.123-5.625c-2.527-5.034-0.496-11.164,4.539-13.691
		l125.45-62.985c5.033-2.527,11.163-0.496,13.691,4.538c2.527,5.034,0.496,11.164-4.539,13.691l-125.45,62.985
		C259.108,451.069,257.546,451.418,256.008,451.418z"/>
</g>
<g>
</g>
<g>
</g>
<g>
</g>
<g>
</g>
<g>
</g>
<g>
</g>
<g>
</g>
<g>
</g>
<g>
</g>
<g>
</g>
<g>
</g>
<g>
</g>
<g>
</g>
<g>
</g>
<g>
</g>
</svg>
