<svg width="408.788" height="408.788" xmlns="http://www.w3.org/2000/svg" version="1.1" xml:space="preserve">
 <g>
  <title>Layer 1</title>
  <rect fill="#fff" stroke="#FFF" x="120.606" y="48.894" width="221" height="358" id="svg_17"/>
  <path d="m353.701,0l-298.614,0c-30.422,0 -55.085,24.662 -55.085,55.085l0,298.616c0,30.423 24.662,55.085 55.085,55.085l147.275,0l0.251,-146.078l-37.951,0c-4.932,0 -8.935,-3.988 -8.954,-8.92l-0.182,-47.087c-0.019,-4.959 3.996,-8.989 8.955,-8.989l37.882,0l0,-45.498c0,-52.8 32.247,-81.55 79.348,-81.55l38.65,0c4.945,0 8.955,4.009 8.955,8.955l0,39.704c0,4.944 -4.007,8.952 -8.95,8.955l-23.719,0.011c-25.615,0 -30.575,12.172 -30.575,30.035l0,39.389l56.285,0c5.363,0 9.524,4.683 8.892,10.009l-5.581,47.087c-0.534,4.506 -4.355,7.901 -8.892,7.901l-50.453,0l-0.251,146.078l87.631,0c30.422,0 55.084,-24.662 55.084,-55.084l0,-298.619c-0.001,-30.423 -24.663,-55.085 -55.086,-55.085z" fill="#475993" id="svg_1"/>
  <g id="svg_2"/>
  <g id="svg_3"/>
  <g id="svg_4"/>
  <g id="svg_5"/>
  <g id="svg_6"/>
  <g id="svg_7"/>
  <g id="svg_8"/>
  <g id="svg_9"/>
  <g id="svg_10"/>
  <g id="svg_11"/>
  <g id="svg_12"/>
  <g id="svg_13"/>
  <g id="svg_14"/>
  <g id="svg_15"/>
  <g id="svg_16"/>
 </g>

</svg>