<svg width="151" height="114" viewBox="0 0 151 114" fill="none" xmlns="http://www.w3.org/2000/svg">
<path d="M47.0328 6.12405C47.0328 8.68844 47.4248 14.4218 47.7755 16.7986C48.3531 20.8849 49.3845 24.4084 50.7253 26.9311L51.5298 28.4322L50.6222 29.7456C49.3845 31.5386 48.1261 34.2073 47.6517 36.1045C47.0535 38.4604 46.9916 38.3562 48.9306 39.0025C52.85 40.3159 59.9462 43.9019 58.6466 43.9019C58.5641 43.9019 56.9138 43.1097 54.9748 42.1506C53.0563 41.1707 50.519 40.0449 49.3638 39.6488L47.2391 38.8982V39.4403C47.2391 40.0241 46.7853 40.2742 43.5879 41.4001C40.9681 42.3383 40.9887 42.3174 42.6596 42.8595C44.3924 43.4015 44.97 43.9228 44.5987 44.5482C44.3718 44.9027 44.413 44.9443 44.805 44.9652C45.0731 44.9652 45.4238 45.0069 45.5888 45.0277C45.7539 45.0694 46.414 45.1528 47.0535 45.2154C49.8796 45.5281 57.9659 47.8006 57.9659 48.301C57.9659 48.5929 57.6565 48.5303 55.738 47.8632C52.85 46.8833 50.0446 46.1536 47.3423 45.6741C45.4651 45.3613 42.9897 45.3196 42.2883 45.6115L41.5663 45.9034L43.0103 46.7582C45.4444 48.1967 45.7745 48.9473 44.0623 49.1975C43.5466 49.2809 43.1134 49.4268 43.1134 49.5102C43.1134 49.6145 43.6085 50.1148 44.2274 50.6569L45.3619 51.6159L47.6311 51.4908C49.302 51.3866 49.9208 51.4074 49.9208 51.5951C49.9208 51.741 49.5289 51.8244 48.9513 51.8244C48.3943 51.8244 47.466 51.887 46.8678 51.9704C45.8364 52.0955 45.7951 52.1163 46.1252 52.4707C46.4965 52.8877 46.4965 52.9086 45.2382 53.2213L44.5987 53.3881L45.5476 54.4722L46.5171 55.5563L47.9611 55.056C50.189 54.2846 56.9345 53.3881 56.9345 53.8467C56.9345 54.0761 56.1506 54.222 53.7371 54.4305C50.7666 54.7015 46.9503 55.6189 47.0947 56.0567C47.136 56.1818 48.0436 57.12 49.1369 58.1207L51.1173 59.9763L53.2626 59.3508C55.3461 58.7462 59.6781 57.6621 60.0494 57.6621C60.1525 57.6621 60.235 57.7455 60.235 57.8497C60.235 57.9539 59.2036 58.2875 57.9246 58.6003C55.8412 59.1006 52.5819 59.9971 51.7774 60.289C51.4061 60.4141 52.1487 61.1021 55.5524 63.7082C58.9767 66.3351 60.1319 66.8563 65.4746 68.0864C67.9294 68.6493 71.2506 69.4624 72.8802 69.8794C76.8615 70.9218 79.0481 70.9635 81.1729 70.0253C81.9774 69.6709 84.7003 68.837 87.2583 68.1907C93.6118 66.5853 94.3957 66.3351 95.7984 65.4803C96.8917 64.834 98.9133 63.2495 100.151 62.1028C100.378 61.8943 101.286 61.0812 102.173 60.289C103.287 59.2883 103.699 58.7879 103.513 58.6836C103.369 58.6003 102.173 58.2875 100.873 57.9748C97.8819 57.2659 97.9438 57.2868 98.0675 57.0574C98.1913 56.849 98.6039 56.9324 102.09 57.7872L104.235 58.3292L105.432 57.12C106.113 56.4528 106.649 55.8482 106.649 55.7648C106.649 55.1811 101.863 54.0344 98.3563 53.7634C96.5823 53.6383 95.9016 53.4506 96.1904 53.1587C96.3966 52.9503 101.863 53.6383 103.802 54.1178C104.669 54.3471 105.783 54.7224 106.257 54.9517L107.123 55.4104L108.114 54.4097C108.65 53.8676 109.062 53.3464 109.021 53.263C108.959 53.2004 108.588 53.0545 108.196 52.9919C107.33 52.8252 107.309 52.6792 107.99 52.0329C108.279 51.7619 108.506 51.47 108.506 51.3866C108.506 51.3032 107.206 51.1781 105.618 51.0947C104.029 51.0113 102.73 50.8654 102.73 50.7611C102.73 50.5527 105.246 50.5318 107.495 50.7403L109.083 50.8862L109.97 50.1148C110.589 49.5728 110.775 49.3226 110.568 49.26C110.403 49.1975 109.867 49.0515 109.393 48.9265C108.897 48.7805 108.506 48.6137 108.506 48.5303C108.506 48.0717 109.248 47.4462 110.651 46.7373C111.517 46.2995 112.219 45.8617 112.219 45.7783C112.219 45.5281 111.022 45.1528 110.28 45.1528C109.578 45.1528 105.246 46.3412 103.39 47.0292C102.214 47.4879 101.698 47.5504 101.698 47.2794C101.698 47.1126 106.401 45.5073 108.567 44.9443C109.166 44.7776 109.475 44.6108 109.31 44.5274C109.166 44.4231 109.124 44.1521 109.207 43.8185C109.31 43.3598 109.558 43.2139 110.878 42.8386C111.744 42.5676 112.404 42.2757 112.363 42.1506C112.322 42.0255 111.146 41.546 109.743 41.0665C108.093 40.5244 107.062 40.0449 106.835 39.753L106.463 39.2943L104.442 40.0657C102.379 40.8372 99.2434 42.3174 97.098 43.5058C96.0047 44.1312 95.5096 44.2146 95.7984 43.7351C95.9841 43.4015 102.523 40.2325 104.504 39.5237L106.381 38.8357L106.195 37.8766C105.886 36.1045 104.751 33.0189 103.555 30.663C102.482 28.5573 102.4 28.2862 102.668 27.9318C103.658 26.6183 104.916 23.1574 105.618 19.8217C106.319 16.5484 106.649 13.4836 106.793 9.02202L106.917 4.70634H106.422C104.256 4.70634 98.1707 6.49933 95.1177 8.00043C93.2199 8.95948 91.2189 10.815 88.9085 13.7547C87.9596 14.9848 87.1139 15.9646 87.0313 15.9646C86.9488 15.9646 86.3093 15.777 85.5873 15.5685C83.5864 14.9431 80.8222 14.5052 78.1817 14.3593C75.3557 14.2342 71.9313 14.7346 69.0021 15.7353C67.5375 16.2565 67.1043 16.3191 66.9186 16.1106C66.7742 15.9855 66.011 15.0056 65.2065 13.984C63.1849 11.4405 61.3696 9.58494 60.07 8.73014C57.9865 7.37497 53.4895 5.74877 50.0446 5.12331C48.7862 4.87313 47.5898 4.66464 47.4041 4.62295C47.0741 4.53955 47.0328 4.72719 47.0328 6.12405ZM52.4787 12.0451C56.2331 13.713 60.7507 16.7986 61.7822 18.4039C62.0916 18.8626 62.0503 18.9043 60.5444 19.9259C58.5435 21.3019 55.6968 23.6995 54.1909 25.3257C53.5308 26.0137 52.9532 26.5975 52.9119 26.5975C52.7882 26.5975 51.241 21.5104 50.7666 19.6132C49.9414 16.2148 49.4051 12.3578 49.632 11.4405C49.7764 10.8567 49.8383 10.8776 52.4787 12.0451ZM104.297 12.9833C104.215 14.1091 103.905 16.1523 103.617 17.5283C103.122 19.9884 101.389 25.9303 101.1 26.2222C101.017 26.3265 100.605 25.9303 100.172 25.3674C98.9546 23.7412 95.7778 20.7598 93.9006 19.5089L92.2091 18.3831L92.993 17.57C93.8593 16.6526 95.9222 15.089 97.5518 14.0883C98.8308 13.2752 103.72 10.9818 104.153 10.961C104.38 10.961 104.4 11.3362 104.297 12.9833ZM69.1465 28.5156C69.8066 28.8283 70.7761 29.4955 71.3331 30.0167C75.727 34.1656 74.5718 41.7128 69.1465 44.2772C68.1357 44.7567 67.7025 44.8401 66.1141 44.8401C64.4638 44.8401 64.1132 44.7776 62.8755 44.1729C61.1427 43.339 59.8225 42.0047 58.9561 40.1908C58.3991 38.9816 58.2753 38.5229 58.2134 36.8134C58.1516 35.1872 58.2134 34.6034 58.5641 33.5818C59.4511 31.0383 61.2664 29.1202 63.5768 28.2445C65.1652 27.6608 67.5581 27.765 69.1465 28.5156ZM92.0853 28.599C95.7984 30.4336 97.6137 34.8953 96.376 39.0233C95.654 41.4209 94.1275 43.1931 91.879 44.2772C90.827 44.7567 90.3938 44.8401 88.8054 44.8401C87.1139 44.8401 86.8044 44.7776 85.5873 44.1729C83.8958 43.3181 82.4931 41.8587 81.6267 39.9824C81.0285 38.6897 80.9666 38.4187 80.9666 36.3964C80.9666 34.3741 81.0285 34.103 81.6267 32.8312C82.6581 30.6004 84.0402 29.2453 86.2062 28.3279C87.8771 27.6191 90.3525 27.7233 92.0853 28.599ZM81.3173 47.7798C82.0805 47.9674 82.8231 48.2384 82.9675 48.4261C84.0608 49.7604 81.5854 55.0351 79.4607 55.9316L78.8006 56.2027L79.9145 58.4543C81.6061 61.8735 82.2455 62.4781 84.494 62.8951C86.5775 63.2912 90.1462 62.4156 91.2602 61.2272C91.5696 60.8936 92.044 60.0597 92.2916 59.3717C92.6216 58.4126 92.8073 58.1416 93.0136 58.2667C93.6324 58.6628 92.2503 61.4565 91.0333 62.2905C89.0942 63.5831 84.8035 64.0209 82.7613 63.1036C81.3998 62.4781 80.8016 61.7276 79.2957 58.6419C78.6356 57.3076 77.9961 56.2235 77.8929 56.2652C77.6454 56.3486 77.5629 56.4945 76.449 58.9338C74.9018 62.4156 73.6022 63.3955 70.3429 63.6456C68.507 63.7916 66.5679 63.3538 65.2065 62.499C64.2163 61.8943 63.0405 60.4141 62.8136 59.4759C62.5867 58.5794 63.2055 58.767 63.6387 59.7261C64.0513 60.6643 65.0002 61.7276 65.8047 62.1445C66.898 62.7074 68.9815 63.1244 70.2398 63.0202C73.2516 62.7908 74.2211 62.0611 75.6651 59.0589C76.9647 56.3903 77.0884 55.9942 76.6346 55.9942C76.2633 55.9942 74.7574 54.9934 74.2005 54.3888C73.6641 53.7634 72.7771 51.4491 72.6121 50.1565C72.5296 49.5311 72.4058 48.8431 72.3233 48.6554C72.0964 48.155 73.004 47.6338 74.4274 47.4253C75.9951 47.2169 79.6051 47.4045 81.3173 47.7798Z" fill="white"/>
<path d="M64.8145 29.7039C62.3804 30.3294 60.6476 33.0814 60.6476 36.2504C60.6682 38.9191 61.8028 41.0456 63.7625 42.1298C65.7841 43.2556 67.8263 42.8803 69.5591 41.0456C70.838 39.7113 71.2712 38.4812 71.2712 36.1879C71.2712 34.4783 71.1887 34.0405 70.7349 33.0397C69.5384 30.4962 67.1249 29.1202 64.8145 29.7039ZM67.6612 31.08C68.0119 31.2676 68.342 31.6637 68.4864 32.1224C69.3115 34.6242 65.9697 36.1253 64.9796 33.7069C64.6289 32.8312 64.8764 31.7263 65.5365 31.1842C66.1554 30.6838 66.8361 30.6421 67.6612 31.08Z" fill="white"/>
<path d="M87.4645 29.7456C84.9066 30.517 83.1532 33.5192 83.4007 36.7299C83.6482 40.17 85.8967 42.7135 88.7022 42.7344C90.6619 42.7552 92.4566 41.5043 93.4467 39.4194C94.1068 38.0642 94.2512 35.479 93.7768 33.832C92.931 30.8714 90.0018 28.9951 87.4645 29.7456ZM90.7857 31.3718C91.2601 31.8513 91.3839 32.1641 91.3839 32.8521C91.3839 34.9578 88.8466 35.6875 87.8152 33.8945C86.6187 31.8513 89.1354 29.7248 90.7857 31.3718Z" fill="white"/>
<path d="M26.7345 66.4185C25.538 66.7938 24.5478 68.1906 24.5478 69.525V70.1504L23.4133 69.6292C22.0931 69.0037 20.3809 68.9204 19.432 69.4207C18.2768 70.0253 17.5342 71.5681 17.5342 73.3194C17.5342 73.8823 17.4929 74.341 17.4517 74.341C17.4104 74.341 16.936 74.1325 16.379 73.9032C15.1 73.3194 13.491 73.2986 12.5421 73.8615C11.4488 74.5078 10.8506 75.8213 10.8299 77.5934V79.0737L9.59223 78.9903C8.60207 78.9277 8.23076 78.9903 7.69442 79.3238C6.55986 80.0535 6.29169 80.679 6.29169 82.6805C6.29169 84.2858 6.35357 84.5986 6.97242 85.8703C7.7563 87.4965 9.24155 89.1019 10.5411 89.7899C11.7582 90.4362 13.5529 90.457 14.378 89.8524C15.1413 89.2895 15.6982 88.122 15.7395 86.9545C15.7601 86.4332 15.8014 86.0163 15.8014 86.0163C15.822 86.0163 16.2346 86.1622 16.709 86.329C19.6383 87.3714 21.8661 85.5784 21.8661 82.201V81.2211L22.7532 81.6797C23.3926 82.0133 23.9909 82.1384 24.981 82.1593C26.1362 82.1593 26.4457 82.0759 27.0645 81.5963C27.9309 80.9292 28.4466 79.9076 28.6116 78.5107L28.7354 77.4892L29.2924 77.781C30.3032 78.3023 31.479 78.3857 32.4898 77.9895C36.2235 76.551 34.4495 69.0871 29.8287 66.8355C28.7973 66.3351 27.5183 66.1683 26.7345 66.4185Z" fill="white"/>
<path d="M124.967 66.5228C122.058 67.6069 119.645 71.1095 119.645 74.2368C119.645 75.863 119.975 76.7803 120.862 77.5309C121.811 78.3231 122.801 78.4482 124.224 77.9479L125.38 77.5517L125.503 78.5942C125.895 81.7006 128.309 82.9933 131.279 81.6798L132.187 81.2628L132.269 82.5554C132.476 85.6827 134.6 87.2881 137.303 86.3499C137.839 86.1623 138.293 86.0163 138.314 86.0163C138.334 86.0163 138.417 86.5792 138.479 87.2672C138.602 88.7683 139.139 89.6023 140.273 90.061C141.367 90.4988 141.676 90.4779 143.099 89.9359C144.626 89.373 146.173 87.7885 147.101 85.9121C147.638 84.8071 147.782 84.2025 147.844 82.9307C147.947 81.0335 147.596 80.1578 146.462 79.3864C145.843 78.9695 145.554 78.9069 144.502 78.9903L143.264 79.0737V77.4684C143.264 76.0715 143.182 75.7588 142.707 75.0082C141.717 73.4862 140.191 73.0276 138.396 73.6739C137.777 73.8824 137.117 74.1326 136.931 74.2368C136.601 74.3619 136.56 74.2577 136.56 73.2152C136.56 71.9851 136.168 70.7759 135.57 70.1088C134.58 69.0038 132.62 68.7536 130.908 69.5041C130.372 69.7543 129.835 69.9211 129.753 69.8586C129.67 69.8169 129.546 69.3999 129.464 68.9412C129.237 67.461 127.752 66.1892 126.308 66.2309C125.998 66.2309 125.38 66.3768 124.967 66.5228Z" fill="white"/>
<path d="M70.7555 73.1944V74.3202L73.7672 74.3828L76.7996 74.4453L73.3753 78.7193L69.9304 82.9933V84.2859V85.5994H75.2937H80.6571V84.4527V83.306H76.944C73.4578 83.306 73.2309 83.2852 73.4166 82.9307C73.5197 82.7431 75.1493 80.6791 77.0059 78.3649C80.4096 74.1534 80.4096 74.1534 80.389 73.1527L80.3477 72.1519L75.5619 72.0894L70.7555 72.0477V73.1944Z" fill="white"/>
<path d="M83.442 72.7774C83.3801 73.111 83.1944 75.0916 83.0294 77.1556C82.8644 79.2197 82.6375 81.8883 82.5137 83.0767C82.4106 84.2859 82.3487 85.3075 82.4106 85.37C82.4724 85.4117 83.0707 85.516 83.7308 85.5577L84.9478 85.6411L85.0716 84.2234C85.2985 81.7424 85.3604 81.5964 86.4537 80.6374C87.0107 80.1579 87.547 79.7617 87.6295 79.7617C87.7121 79.7617 88.434 81.2003 89.2386 82.9516L90.7032 86.1206L92.2916 86.3082C93.1579 86.4125 93.9006 86.4542 93.9625 86.3916C94.0243 86.3291 93.0961 84.4319 91.8996 82.1593C90.7032 79.866 89.7336 77.9687 89.7543 77.8853C89.7543 77.8228 90.6825 76.9889 91.8171 76.009C92.9517 75.0499 94.1275 73.9866 94.4163 73.6739L94.9732 73.0901H94.2513C93.8593 73.0901 93.0961 73.0276 92.5185 72.965L91.487 72.84L88.6403 75.4877C87.0726 76.9472 85.7524 78.0938 85.7111 78.0521C85.6698 78.0104 85.7317 76.968 85.8349 75.7379C86.1443 72.3604 86.1649 72.3813 84.7416 72.2562L83.5451 72.1519L83.442 72.7774Z" fill="white"/>
<path d="M61.4933 72.9233C59.4924 73.236 57.9658 74.4453 57.0995 76.3216C56.4806 77.6768 56.4393 80.7416 56.9963 82.4095C58.0896 85.6202 61.2251 87.2881 64.3813 86.3499C66.4648 85.7452 67.8056 84.3484 68.1976 82.3261C68.342 81.5964 68.2594 81.5547 66.6092 81.3253L65.6603 81.1794L65.5159 81.9299C65.2271 83.4519 63.6799 84.536 62.174 84.2441C60.4 83.9106 59.348 81.9925 59.3273 79.032C59.3067 77.656 59.3892 77.239 59.7605 76.6344C60.3794 75.6128 61.2251 75.175 62.5247 75.175C63.5149 75.175 63.6593 75.2375 64.4225 76.0506L65.2271 76.9054L66.341 76.551C66.9392 76.3633 67.4962 76.1132 67.5374 76.0298C67.7231 75.7379 66.4854 74.1742 65.6396 73.6113C64.9589 73.1526 64.4844 73.0067 63.0198 72.7982C62.7929 72.7565 62.0915 72.8191 61.4933 72.9233Z" fill="white"/>
<path d="M101.306 74.7789C98.6864 75.3001 96.8505 77.5517 96.3347 80.8667C95.7778 84.4527 97.4693 87.2881 100.687 88.1846C104.751 89.3521 107.99 87.3298 108.918 83.0767C109.248 81.5547 109.104 79.2613 108.609 78.1981C107.804 76.5302 105.948 75.175 104.009 74.8623C102.482 74.6121 102.193 74.5912 101.306 74.7789ZM104.442 77.385C104.813 77.5726 105.267 77.8853 105.473 78.073C107.433 79.7826 106.174 85.1824 103.637 86.0163C102.09 86.5375 100.275 85.8078 99.4703 84.3901C98.3563 82.3887 99.2846 78.615 101.162 77.4475C101.966 76.9471 103.534 76.9263 104.442 77.385Z" fill="white"/>
<path d="M50.4778 75.2792C49.9208 75.4251 49.4463 75.5919 49.4051 75.6336C49.3638 75.6753 49.8589 77.8436 50.4984 80.4497L51.6536 85.2032L51.2823 85.912C50.8491 86.7043 49.7351 87.2672 48.5593 87.2672C48.0024 87.2672 47.6517 87.1004 47.1566 86.5792C46.5377 85.9746 46.3933 85.4951 45.3825 81.4296C44.7843 78.9694 44.2686 76.9262 44.248 76.9054C44.2067 76.8428 41.8138 77.4474 41.7313 77.5308C41.6282 77.6559 43.9386 86.4541 44.3099 87.3089C44.8049 88.4556 45.7745 89.227 47.0741 89.5606C47.8786 89.769 48.3118 89.7482 49.5701 89.4772C51.6536 88.9976 52.7881 88.393 53.5308 87.3089C54.0465 86.5583 54.1496 86.2039 54.129 85.224C54.129 83.8063 52.0043 74.9664 51.6948 74.9873C51.5711 74.9873 51.0141 75.1332 50.4778 75.2792Z" fill="white"/>
<path d="M113.25 77.5725C113.25 77.7393 111.393 90.3111 111.311 90.6655C111.249 90.9574 111.455 91.145 112.157 91.4578C114.034 92.2709 113.704 92.5002 116.963 88.1011C118.572 85.912 119.934 84.1607 119.954 84.1816C119.996 84.2233 119.748 86.3498 119.418 88.9351C119.108 91.5203 118.84 93.7511 118.82 93.8971C118.82 94.043 119.212 94.3349 119.707 94.5434C121.522 95.3356 121.274 95.4816 123.399 92.4377C124.472 90.9157 126.246 88.393 127.36 86.8502L129.34 84.0565L128.102 83.5561C127.401 83.2642 126.824 83.0766 126.782 83.1183C126.411 83.6186 122.161 89.9775 121.955 90.3528C121.79 90.6238 121.646 90.8115 121.605 90.7698C121.563 90.7281 121.79 88.7683 122.141 86.4332C122.842 81.4087 122.842 81.3044 122.388 81.1585C122.182 81.1168 121.543 80.8666 120.944 80.6373L119.892 80.1995L117.087 83.9731C115.54 86.0579 114.281 87.6841 114.281 87.6008C114.281 87.5174 114.611 85.5576 115.003 83.2434C115.395 80.9292 115.725 78.9277 115.725 78.7817C115.725 78.5524 115.21 78.2605 113.724 77.6559C113.456 77.5517 113.25 77.51 113.25 77.5725Z" fill="white"/>
<path d="M33.7275 80.7832C32.8404 81.096 27.4358 83.4727 27.2914 83.5978C27.2295 83.6604 32.4072 95.4608 32.5723 95.6484C32.6548 95.7318 33.2324 95.5442 33.8719 95.2314L35.027 94.6685L33.9131 92.1667C32.7167 89.4772 32.7167 89.5189 34.0781 89.1436C35.027 88.8726 35.4602 89.0393 38.3482 90.874C40.4936 92.2292 40.5142 92.2501 41.1949 91.9373C41.5663 91.7914 42.2057 91.4995 42.5977 91.3327C42.9896 91.1659 43.3197 90.9783 43.3197 90.9366C43.3197 90.874 42.412 90.2277 41.3187 89.498C39.2352 88.1012 37.9975 87.4757 37.3168 87.4757C37.0074 87.4757 37.1105 87.3089 37.75 86.7251C38.8227 85.7452 39.1527 84.682 38.802 83.3476C38.1419 80.8041 36.2441 79.845 33.7275 80.7832ZM35.7903 83.4102C36.3473 83.9522 36.4504 84.7237 36.0791 85.4325C35.8316 85.8912 32.1597 87.7467 31.9328 87.5174C31.8503 87.434 31.5202 86.746 31.1695 85.9746L30.5713 84.5986L32.4485 83.7438C34.6557 82.7639 35.1096 82.7013 35.7903 83.4102Z" fill="white"/>
<path d="M21.1442 87.3924C20.4634 87.9136 19.7621 88.4139 19.6177 88.5182C19.3082 88.685 19.3495 88.8309 22.2994 96.5032L22.6913 97.504L19.5764 94.9396C14.9763 91.1451 15.657 91.4787 14.378 92.3543C12.1708 93.918 12.2533 93.8137 12.6865 94.4809C12.8928 94.8145 14.6462 97.2746 16.544 99.9224L20.0302 104.78L20.9379 104.092C21.433 103.738 21.8455 103.342 21.8662 103.258C21.8662 103.112 18.9369 98.9008 16.5234 95.6067C15.9045 94.7728 15.7189 94.6268 21.1235 99.1927C22.7326 100.548 24.0734 101.653 24.1353 101.653C24.1972 101.653 24.6716 101.319 25.208 100.923L26.1981 100.193L25.8062 99.2136C25.5999 98.6506 24.7129 96.4198 23.8465 94.2516C23.0007 92.0625 22.4438 90.478 22.6088 90.7073C22.7944 90.9366 24.094 92.7296 25.4968 94.7102C26.9201 96.6909 28.1578 98.3588 28.261 98.4213C28.5704 98.6089 30.3444 97.2538 30.1588 96.9619C29.7256 96.2113 22.6088 86.4333 22.5056 86.4333C22.4438 86.4333 21.8249 86.8711 21.1442 87.3924Z" fill="white"/>
<path d="M133.156 89.3312C130.475 90.0401 127.731 93.1883 127.36 96.0445C126.968 98.9425 129.567 102.278 132.723 102.945C135.137 103.467 137.427 102.424 139.262 99.9849C140.541 98.2753 140.975 97.0244 140.851 95.3357C140.706 93.0423 139.159 90.8949 136.87 89.7691C135.879 89.2895 134.126 89.0602 133.156 89.3312ZM136.333 92.1458C137.179 92.6045 138.169 93.8346 138.314 94.6268C138.644 96.3781 136.993 99.1093 135.034 100.089C134.126 100.548 133.734 100.631 133.115 100.506C130.784 100.068 129.485 98.0252 130.165 95.8986C130.516 94.8145 131.857 93.0006 132.806 92.3752C133.713 91.7914 135.426 91.6871 136.333 92.1458Z" fill="white"/>
<path d="M72.3026 90.4778C70.6936 91.1867 69.8891 93.0631 70.3429 95.0646C70.6317 96.3989 71.0443 96.9618 72.0757 97.483C73.2103 98.0251 74.3654 98.0042 75.5 97.4205C77.996 96.1695 77.996 91.9164 75.5 90.6446C74.4686 90.1234 73.2309 90.0609 72.3026 90.4778ZM75.1493 92.0206C75.9745 92.8546 75.9951 95.1271 75.1906 96.0236C74.4067 96.8993 72.6327 96.6699 72.0963 95.6066C71.725 94.8561 71.7044 93.1673 72.0757 92.5002C72.6739 91.416 74.2829 91.1658 75.1493 92.0206Z" fill="white"/>
<path d="M80.0383 90.6447C78.8418 91.2702 78.2849 92.3543 78.2849 94.0431C78.2849 95.7318 78.8418 96.816 80.0383 97.4206C81.6473 98.2545 83.3388 97.921 84.1227 96.5866C84.7209 95.6276 84.7003 95.44 83.9164 95.2315C83.2976 95.0647 83.2151 95.1064 82.9881 95.6484C82.5137 96.7534 81.0284 96.8785 80.2446 95.8778C79.9351 95.4608 79.832 95.023 79.832 94.0014C79.832 92.7922 79.8939 92.5837 80.4302 92.0416C81.2141 91.2494 81.9567 91.2494 82.7406 92.0625C83.2357 92.5628 83.4832 92.6462 83.9577 92.542C84.7003 92.396 84.7416 92.1042 84.1227 91.3328C83.2151 90.1444 81.5441 89.8733 80.0383 90.6447Z" fill="white"/>
<path d="M63.123 94.043V97.6915H63.845H64.567V96.5865C64.567 95.6275 64.6495 95.3982 65.1858 94.877C65.6809 94.3974 65.8666 94.314 65.9903 94.5434C66.0935 94.6893 66.5267 95.4607 66.9599 96.253L67.7644 97.6915H68.7339H69.7241L68.2801 95.4399L66.8567 93.2091L68.2388 91.7913L69.6003 90.3945H68.5895C67.5787 90.3945 67.5375 90.4153 66.0728 91.9998L64.5876 93.626L64.567 91.9998V90.3945H63.845H63.123V94.043Z" fill="white"/>
<path d="M85.8142 94.043V97.6915H86.5156C86.9075 97.6915 87.2582 97.6081 87.2995 97.483C87.3407 97.3788 87.3407 95.7317 87.2995 93.8345L87.2376 90.3945H86.5362H85.8142V94.043Z" fill="white"/>
<path d="M89.5892 93.6678C88.8878 95.4816 88.2484 97.1287 88.1658 97.3163C88.0627 97.629 88.1658 97.6916 88.8466 97.6916C89.6305 97.6916 89.6717 97.6499 89.9193 96.8576L90.1668 96.0237H91.6727H93.1786L93.4261 96.8576C93.653 97.6499 93.7149 97.6916 94.4988 97.6916C95.4889 97.6916 95.5508 98.1086 93.7974 93.7303L92.4978 90.4988L91.6727 90.4362L90.8475 90.3737L89.5892 93.6678Z" fill="white"/>
<path d="M50.0652 102.007C49.8795 102.174 49.8795 108.595 50.0445 109.033C50.127 109.242 50.4158 109.367 50.8697 109.367H51.571V108.158C51.571 107.094 51.6535 106.865 52.1486 106.385L52.7262 105.823L53.737 107.595L54.7478 109.367H56.46H58.1721L58.5022 108.533L58.8322 107.699H60.3587H61.8646L62.1121 108.533C62.3391 109.325 62.4009 109.367 63.1642 109.367C63.5974 109.367 63.9481 109.283 63.9481 109.2C63.9481 109.117 63.3086 107.449 62.5453 105.51L61.1426 101.966L60.3175 101.903L59.513 101.84L58.1927 105.343C57.4707 107.261 56.8106 108.929 56.7281 109.012C56.6044 109.158 53.8401 105.135 53.8401 104.801C53.8401 104.718 54.3971 104.113 55.0779 103.425C55.7586 102.737 56.3156 102.111 56.3156 102.028C56.3156 101.945 55.9236 101.861 55.4492 101.861C54.6034 101.84 54.4796 101.924 53.0769 103.467L51.5917 105.093L51.571 103.467V101.861H50.8903C50.4983 101.861 50.127 101.924 50.0652 102.007Z" fill="white"/>
<path d="M63.6387 102.32C63.7006 102.591 64.1131 104.259 64.5257 106.031L65.289 109.263L66.0728 109.325C66.5679 109.367 66.8773 109.304 66.9392 109.117C66.9805 108.971 67.3312 107.72 67.6819 106.344L68.3626 103.842L68.7339 105.093C68.9196 105.781 69.2496 107.032 69.4559 107.866L69.8066 109.388L70.6111 109.325L71.4156 109.263L72.3232 105.614C72.8183 103.613 73.2103 101.945 73.2309 101.903C73.2309 101.882 72.8802 101.861 72.447 101.861H71.6631L71.1887 104.259C70.9205 105.572 70.6317 106.657 70.5698 106.657C70.4873 106.657 70.2192 105.739 69.9716 104.613C69.7034 103.508 69.4353 102.424 69.394 102.216C69.3115 101.945 69.064 101.861 68.4039 101.861H67.5168L66.9392 104.092C66.6298 105.343 66.2998 106.427 66.2172 106.511C66.1347 106.594 65.8459 105.593 65.5778 104.28L65.1033 101.861H64.3194C63.5974 101.861 63.5355 101.903 63.6387 102.32Z" fill="white"/>
<path d="M73.8497 105.614V109.367H74.5717H75.2937V105.614V101.861H74.5717H73.8497V105.614Z" fill="white"/>
<path d="M77.501 105.468C76.7378 107.47 76.1189 109.179 76.1189 109.242C76.1189 109.325 76.4696 109.367 76.9028 109.325C77.5629 109.263 77.6867 109.179 77.8929 108.533L78.1405 107.803L79.667 107.741L81.2141 107.678L81.5442 108.533C81.833 109.283 81.9361 109.367 82.5962 109.367C83.0088 109.367 83.3389 109.304 83.3389 109.2C83.3389 109.117 82.6994 107.449 81.9155 105.51L80.4921 101.966L79.6876 101.903L78.8831 101.84L77.501 105.468Z" fill="white"/>
<path d="M84.1639 105.593V109.367H84.8859H85.6079V107.803V106.24H86.2062C86.8663 106.24 87.3614 106.74 88.4134 108.408C88.9704 109.304 89.0735 109.367 89.8987 109.367H90.7857L90.3112 108.512C90.0637 108.033 89.5273 107.282 89.156 106.844L88.4753 106.031L88.9704 105.843C90.1874 105.364 90.5381 103.613 89.6511 102.549C89.156 101.986 89.0941 101.966 86.66 101.882L84.1639 101.82V105.593Z" fill="white"/>
<path d="M91.5902 105.593V109.367H92.3122H93.0136L93.0755 107.011L93.1373 104.676L94.5607 107.032C95.9015 109.263 96.0047 109.367 96.6648 109.367H97.3661V105.614V101.861H96.7473H96.1284V104.301C96.1284 105.635 96.0666 106.656 95.9841 106.573C95.8809 106.49 95.2208 105.426 94.4782 104.196C93.1786 102.07 93.0961 101.966 92.3535 101.903L91.5902 101.84V105.593Z" fill="white"/>
<path d="M99.0164 105.614V109.367H99.7384H100.46V105.614V101.861H99.7384H99.0164V105.614Z" fill="white"/>
<path d="M102.936 104.613C102.338 106.135 101.677 107.824 101.471 108.387L101.079 109.367H101.904C102.668 109.367 102.729 109.325 102.956 108.533L103.204 107.699H104.73H106.278L106.587 108.533C106.896 109.304 106.979 109.367 107.722 109.367C108.175 109.367 108.505 109.304 108.464 109.2C108.444 109.117 107.763 107.428 106.979 105.447L105.556 101.861H104.772H104.008L102.936 104.613Z" fill="white"/>
</svg>
