<svg xmlns="http://www.w3.org/2000/svg" version="1.1" xmlns:xlink="http://www.w3.org/1999/xlink" xmlns:svgjs="http://svgjs.com/svgjs" width="1440" height="560" preserveAspectRatio="none" viewBox="0 0 1440 560"><g mask="url(&quot;#SvgjsMask1003&quot;)" fill="none"><path d="M515.55 623.93C661.76 621.77 774.59 452.65 1072.59 445.52 1370.58 438.39 1477.44 204.54 1629.62 199.12" stroke="rgba(0, 0, 0, 0.1)" stroke-width="2"></path><path d="M513.99 662.75C677.37 624.99 742.88 192.54 989.92 190.07 1236.95 187.6 1336.15 392.84 1465.84 397.27" stroke="rgba(0, 0, 0, 0.1)" stroke-width="2"></path><path d="M183.59 637.04C361.96 626.93 473.33 312.89 815.11 302.58 1156.9 292.27 1281.75 114.24 1446.64 112.18" stroke="rgba(0, 0, 0, 0.1)" stroke-width="2"></path><path d="M166.83 650.45C335.09 598.14 368.6 128.23 625.36 115.17 882.11 102.11 854.62 185.17 1083.88 185.17 1313.15 185.17 1426.45 115.37 1542.41 115.17" stroke="rgba(0, 0, 0, 0.1)" stroke-width="2"></path><path d="M360.6 667.16C520.69 654.75 633.78 336.54 911.08 336.29 1188.38 336.04 1315.51 529.4 1461.56 532.29" stroke="rgba(0, 0, 0, 0.1)" stroke-width="2"></path></g><defs><mask id="SvgjsMask1003"><rect width="1440" height="560" fill="#ffffff"></rect></mask></defs></svg>