<svg xmlns="http://www.w3.org/2000/svg" version="1.1" xmlns:xlink="http://www.w3.org/1999/xlink" xmlns:svgjs="http://svgjs.com/svgjs" width="1440" height="560" preserveAspectRatio="none" viewBox="0 0 1440 560"><g mask="url(&quot;#SvgjsMask1047&quot;)" fill="none"><path d="M1512 560L0 560 L0 396.03Q6.19 330.22, 72 336.41Q141.36 285.77, 192 355.13Q248.68 339.81, 264 396.48Q273.81 334.3, 336 344.11Q389.97 278.08, 456 332.04Q504.13 308.18, 528 356.31Q573.59 329.9, 600 375.49Q644.4 299.89, 720 344.3Q764.13 316.43, 792 360.56Q845.01 341.57, 864 394.58Q894.32 304.9, 984 335.22Q1014.44 293.67, 1056 324.11Q1107.14 303.25, 1128 354.39Q1200.82 307.2, 1248 380.02Q1259.5 319.52, 1320 331.02Q1363.63 302.65, 1392 346.28Q1465.34 299.62, 1512 372.95z" fill="rgba(0, 70, 67, 1)"></path><path d="M1560 560L0 560 L0 394.68Q67.65 390.33, 72 457.97Q102.1 416.07, 144 446.16Q194.05 376.21, 264 426.25Q290.32 380.57, 336 406.9Q389.55 388.44, 408 441.99Q420.06 382.05, 480 394.11Q510.38 352.49, 552 382.87Q645.37 356.24, 672 449.6Q719.42 377.02, 792 424.44Q820.69 381.13, 864 409.82Q919.35 393.17, 936 448.53Q939.64 380.17, 1008 383.82Q1073.02 328.84, 1128 393.85Q1220.88 366.73, 1248 459.61Q1290.42 382.03, 1368 424.45Q1409.31 393.76, 1440 435.07Q1474.62 349.69, 1560 384.3z" fill="rgba(71, 161, 156, 1)"></path><path d="M1536 560L0 560 L0 447.61Q77.76 405.37, 120 483.13Q148.38 439.51, 192 467.89Q243.08 446.97, 264 498.05Q316.45 430.5, 384 482.95Q428.19 407.14, 504 451.33Q550.04 425.37, 576 471.41Q620.85 396.25, 696 441.1Q752.21 425.31, 768 481.52Q840.98 434.5, 888 507.47Q890.1 437.57, 960 439.66Q1033.86 441.52, 1032 515.38Q1069.71 433.09, 1152 470.8Q1175.61 422.4, 1224 446.01Q1277.57 427.58, 1296 481.15Q1348.89 414.04, 1416 466.94Q1495.43 426.37, 1536 505.8z" fill="rgba(0, 137, 132, 1)"></path><path d="M1512 560L0 560 L0 564.51Q58.66 503.17, 120 561.84Q189.06 510.9, 240 579.96Q261.29 529.25, 312 550.55Q327.67 494.22, 384 509.9Q430.65 484.55, 456 531.2Q509.23 512.43, 528 565.66Q581.87 499.52, 648 553.39Q667.95 501.34, 720 521.28Q790.35 471.63, 840 541.98Q883.65 513.63, 912 557.29Q959.31 532.6, 984 579.91Q1023.87 499.78, 1104 539.65Q1178.42 494.08, 1224 568.5Q1265.81 538.31, 1296 580.12Q1303.66 515.78, 1368 523.44Q1411.08 494.52, 1440 537.6Q1493.49 519.09, 1512 572.58z" fill="rgba(2, 116, 112, 1)"></path></g><defs><mask id="SvgjsMask1047"><rect width="1440" height="560" fill="#ffffff"></rect></mask></defs></svg>