<svg width="151" height="114.00000000000001" xmlns="http://www.w3.org/2000/svg" fill="none">

 <g>
  <title>Layer 1</title>
  <path id="svg_1" fill="white" d="m47.0328,6.12405c0,2.56439 0.392,8.29775 0.7427,10.67455c0.5776,4.0863 1.609,7.6098 2.9498,10.1325l0.8045,1.5011l-0.9076,1.3134c-1.2377,1.793 -2.4961,4.4617 -2.9705,6.3589c-0.5982,2.3559 -0.6601,2.2517 1.2789,2.898c3.9194,1.3134 11.0156,4.8994 9.716,4.8994c-0.0825,0 -1.7328,-0.7922 -3.6718,-1.7513c-1.9185,-0.9799 -4.4558,-2.1057 -5.611,-2.5018l-2.1247,-0.7506l0,0.5421c0,0.5838 -0.4538,0.8339 -3.6512,1.9598c-2.6198,0.9382 -2.5992,0.9173 -0.9283,1.4594c1.7328,0.542 2.3104,1.0633 1.9391,1.6887c-0.2269,0.3545 -0.1857,0.3961 0.2063,0.417c0.2681,0 0.6188,0.0417 0.7838,0.0625c0.1651,0.0417 0.8252,0.1251 1.4647,0.1877c2.8261,0.3127 10.9124,2.5852 10.9124,3.0856c0,0.2919 -0.3094,0.2293 -2.2279,-0.4378c-2.888,-0.9799 -5.6934,-1.7096 -8.3957,-2.1891c-1.8772,-0.3128 -4.3526,-0.3545 -5.054,-0.0626l-0.722,0.2919l1.444,0.8548c2.4341,1.4385 2.7642,2.1891 1.052,2.4393c-0.5157,0.0834 -0.9489,0.2293 -0.9489,0.3127c0,0.1043 0.4951,0.6046 1.114,1.1467l1.1345,0.959l2.2692,-0.1251c1.6709,-0.1042 2.2897,-0.0834 2.2897,0.1043c0,0.1459 -0.3919,0.2293 -0.9695,0.2293c-0.557,0 -1.4853,0.0626 -2.0835,0.146c-1.0314,0.1251 -1.0727,0.1459 -0.7426,0.5003c0.3713,0.417 0.3713,0.4379 -0.887,0.7506l-0.6395,0.1668l0.9489,1.0841l0.9695,1.0841l1.444,-0.5003c2.2279,-0.7714 8.9734,-1.6679 8.9734,-1.2093c0,0.2294 -0.7839,0.3753 -3.1974,0.5838c-2.9705,0.271 -6.7868,1.1884 -6.6424,1.6262c0.0413,0.1251 0.9489,1.0633 2.0422,2.064l1.9804,1.8556l2.1453,-0.6255c2.0835,-0.6046 6.4155,-1.6887 6.7868,-1.6887c0.1031,0 0.1856,0.0834 0.1856,0.1876c0,0.1042 -1.0314,0.4378 -2.3104,0.7506c-2.0834,0.5003 -5.3427,1.3968 -6.1472,1.6887c-0.3713,0.1251 0.3713,0.8131 3.775,3.4192c3.4243,2.6269 4.5795,3.1481 9.9222,4.3782c2.4548,0.5629 5.776,1.376 7.4056,1.793c3.9813,1.0424 6.1679,1.0841 8.2927,0.1459c0.8045,-0.3544 3.5274,-1.1883 6.0854,-1.8346c6.3535,-1.6054 7.1374,-1.8556 8.5401,-2.7104c1.0933,-0.6463 3.1149,-2.2308 4.3526,-3.3775c0.227,-0.2085 1.135,-1.0216 2.022,-1.8138c1.114,-1.0007 1.526,-1.5011 1.34,-1.6054c-0.144,-0.0833 -1.34,-0.3961 -2.64,-0.7088c-2.9911,-0.7089 -2.9292,-0.688 -2.8055,-0.9174c0.1238,-0.2084 0.5364,-0.125 4.0225,0.7298l2.145,0.542l1.197,-1.2092c0.681,-0.6672 1.217,-1.2718 1.217,-1.3552c0,-0.5837 -4.786,-1.7304 -8.2927,-2.0014c-1.774,-0.1251 -2.4547,-0.3128 -2.1659,-0.6047c0.2062,-0.2084 5.6726,0.4796 7.6116,0.9591c0.867,0.2293 1.981,0.6046 2.455,0.8339l0.866,0.4587l0.991,-1.0007c0.536,-0.5421 0.948,-1.0633 0.907,-1.1467c-0.062,-0.0626 -0.433,-0.2085 -0.825,-0.2711c-0.866,-0.1667 -0.887,-0.3127 -0.206,-0.959c0.289,-0.271 0.516,-0.5629 0.516,-0.6463c0,-0.0834 -1.3,-0.2085 -2.888,-0.2919c-1.589,-0.0834 -2.888,-0.2293 -2.888,-0.3336c0,-0.2084 2.516,-0.2293 4.765,-0.0208l1.588,0.1459l0.887,-0.7714c0.619,-0.542 0.805,-0.7922 0.598,-0.8548c-0.165,-0.0625 -0.701,-0.2085 -1.175,-0.3335c-0.496,-0.146 -0.887,-0.3128 -0.887,-0.3962c0,-0.4586 0.742,-1.0841 2.145,-1.793c0.866,-0.4378 1.568,-0.8756 1.568,-0.959c0,-0.2502 -1.197,-0.6255 -1.939,-0.6255c-0.702,0 -5.034,1.1884 -6.89,1.8764c-1.176,0.4587 -1.692,0.5212 -1.692,0.2502c0,-0.1668 4.703,-1.7721 6.869,-2.3351c0.599,-0.1667 0.908,-0.3335 0.743,-0.4169c-0.144,-0.1043 -0.186,-0.3753 -0.103,-0.7089c0.103,-0.4587 0.351,-0.6046 1.671,-0.9799c0.866,-0.271 1.526,-0.5629 1.485,-0.688c-0.041,-0.1251 -1.217,-0.6046 -2.62,-1.0841c-1.65,-0.5421 -2.681,-1.0216 -2.908,-1.3135l-0.372,-0.4587l-2.021,0.7714c-2.063,0.7715 -5.1986,2.2517 -7.344,3.4401c-1.0933,0.6254 -1.5884,0.7088 -1.2996,0.2293c0.1857,-0.3336 6.7246,-3.5026 8.7056,-4.2114l1.877,-0.688l-0.186,-0.9591c-0.309,-1.7721 -1.444,-4.8577 -2.64,-7.2136c-1.073,-2.1057 -1.155,-2.3768 -0.887,-2.7312c0.99,-1.3135 2.248,-4.7744 2.95,-8.1101c0.701,-3.2733 1.031,-6.3381 1.175,-10.79968l0.124,-4.31568l-0.495,0c-2.166,0 -8.2513,1.79299 -11.3043,3.29409c-1.8978,0.95905 -3.8988,2.81457 -6.2092,5.75427c-0.9489,1.2301 -1.7946,2.2099 -1.8772,2.2099c-0.0825,0 -0.722,-0.1876 -1.444,-0.3961c-2.0009,-0.6254 -4.7651,-1.0633 -7.4056,-1.2092c-2.826,-0.1251 -6.2504,0.3753 -9.1796,1.376c-1.4646,0.5212 -1.8978,0.5838 -2.0835,0.3753c-0.1444,-0.1251 -0.9076,-1.105 -1.7121,-2.1266c-2.0216,-2.5435 -3.8369,-4.39906 -5.1365,-5.25386c-2.0835,-1.35517 -6.5805,-2.98137 -10.0254,-3.60683c-1.2584,-0.25018 -2.4548,-0.45867 -2.6405,-0.50036c-0.33,-0.0834 -0.3713,0.10424 -0.3713,1.5011zm5.4459,5.92105c3.7544,1.6679 8.272,4.7535 9.3035,6.3588c0.3094,0.4587 0.2681,0.5004 -1.2378,1.522c-2.0009,1.376 -4.8476,3.7736 -6.3535,5.3998c-0.6601,0.688 -1.2377,1.2718 -1.279,1.2718c-0.1237,0 -1.6709,-5.0871 -2.1453,-6.9843c-0.8252,-3.3984 -1.3615,-7.2554 -1.1346,-8.1727c0.1444,-0.5838 0.2063,-0.5629 2.8467,0.6046zm51.8183,0.9382c-0.082,1.1258 -0.392,3.169 -0.68,4.545c-0.495,2.4601 -2.228,8.402 -2.517,8.6939c-0.083,0.1043 -0.495,-0.2919 -0.928,-0.8548c-1.2174,-1.6262 -4.3942,-4.6076 -6.2714,-5.8585l-1.6915,-1.1258l0.7839,-0.8131c0.8663,-0.9174 2.9292,-2.481 4.5588,-3.4817c1.279,-0.8131 6.1682,-3.1065 6.6012,-3.1273c0.227,0 0.247,0.3752 0.144,2.0223zm-35.1505,15.5323c0.6601,0.3127 1.6296,0.9799 2.1866,1.5011c4.3939,4.1489 3.2387,11.6961 -2.1866,14.2605c-1.0108,0.4795 -1.444,0.5629 -3.0324,0.5629c-1.6503,0 -2.0009,-0.0625 -3.2386,-0.6672c-1.7328,-0.8339 -3.053,-2.1682 -3.9194,-3.9821c-0.557,-1.2092 -0.6808,-1.6679 -0.7427,-3.3774c-0.0618,-1.6262 0,-2.21 0.3507,-3.2316c0.887,-2.5435 2.7023,-4.4616 5.0127,-5.3373c1.5884,-0.5837 3.9813,-0.4795 5.5697,0.2711zm22.9388,0.0834c3.7131,1.8346 5.5284,6.2963 4.2907,10.4243c-0.722,2.3976 -2.2485,4.1698 -4.497,5.2539c-1.052,0.4795 -1.4852,0.5629 -3.0736,0.5629c-1.6915,0 -2.001,-0.0625 -3.2181,-0.6672c-1.6915,-0.8548 -3.0942,-2.3142 -3.9606,-4.1905c-0.5982,-1.2927 -0.6601,-1.5637 -0.6601,-3.586c0,-2.0223 0.0619,-2.2934 0.6601,-3.5652c1.0314,-2.2308 2.4135,-3.5859 4.5795,-4.5033c1.6709,-0.7088 4.1463,-0.6046 5.8791,0.2711zm-10.768,19.1808c0.7632,0.1876 1.5058,0.4586 1.6502,0.6463c1.0933,1.3343 -1.3821,6.609 -3.5068,7.5055l-0.6601,0.2711l1.1139,2.2516c1.6916,3.4192 2.331,4.0238 4.5795,4.4408c2.0835,0.3961 5.6522,-0.4795 6.7662,-1.6679c0.3094,-0.3336 0.7838,-1.1675 1.0314,-1.8555c0.33,-0.9591 0.5157,-1.2301 0.722,-1.105c0.6188,0.3961 -0.7633,3.1898 -1.9803,4.0238c-1.9391,1.2926 -6.2298,1.7304 -8.272,0.8131c-1.3615,-0.6255 -1.9597,-1.376 -3.4656,-4.4617c-0.6601,-1.3343 -1.2996,-2.4184 -1.4028,-2.3767c-0.2475,0.0834 -0.33,0.2293 -1.4439,2.6686c-1.5472,3.4818 -2.8468,4.4617 -6.1061,4.7118c-1.8359,0.146 -3.775,-0.2918 -5.1364,-1.1466c-0.9902,-0.6047 -2.166,-2.0849 -2.3929,-3.0231c-0.2269,-0.8965 0.3919,-0.7089 0.8251,0.2502c0.4126,0.9382 1.3615,2.0015 2.166,2.4184c1.0933,0.5629 3.1768,0.9799 4.4351,0.8757c3.0118,-0.2294 3.9813,-0.9591 5.4253,-3.9613c1.2996,-2.6686 1.4233,-3.0647 0.9695,-3.0647c-0.3713,0 -1.8772,-1.0008 -2.4341,-1.6054c-0.5364,-0.6254 -1.4234,-2.9397 -1.5884,-4.2323c-0.0825,-0.6254 -0.2063,-1.3134 -0.2888,-1.5011c-0.2269,-0.5004 0.6807,-1.0216 2.1041,-1.2301c1.5677,-0.2084 5.1777,-0.0208 6.8899,0.3545z"/>
  <path id="svg_2" fill="white" d="m64.8145,29.7039c-2.4341,0.6255 -4.1669,3.3775 -4.1669,6.5465c0.0206,2.6687 1.1552,4.7952 3.1149,5.8794c2.0216,1.1258 4.0638,0.7505 5.7966,-1.0842c1.2789,-1.3343 1.7121,-2.5644 1.7121,-4.8577c0,-1.7096 -0.0825,-2.1474 -0.5363,-3.1482c-1.1965,-2.5435 -3.61,-3.9195 -5.9204,-3.3358zm2.8467,1.3761c0.3507,0.1876 0.6808,0.5837 0.8252,1.0424c0.8251,2.5018 -2.5167,4.0029 -3.5068,1.5845c-0.3507,-0.8757 -0.1032,-1.9806 0.5569,-2.5227c0.6189,-0.5004 1.2996,-0.5421 2.1247,-0.1042z"/>
  <path id="svg_3" fill="white" d="m87.4645,29.7456c-2.5579,0.7714 -4.3113,3.7736 -4.0638,6.9843c0.2475,3.4401 2.496,5.9836 5.3015,6.0045c1.9597,0.0208 3.7544,-1.2301 4.7445,-3.315c0.6601,-1.3552 0.8045,-3.9404 0.3301,-5.5874c-0.8458,-2.9606 -3.775,-4.8369 -6.3123,-4.0864zm3.3212,1.6262c0.4744,0.4795 0.5982,0.7923 0.5982,1.4803c0,2.1057 -2.5373,2.8354 -3.5687,1.0424c-1.1965,-2.0432 1.3202,-4.1697 2.9705,-2.5227z"/>
  <path id="svg_4" fill="white" d="m26.7345,66.4185c-1.1965,0.3753 -2.1867,1.7721 -2.1867,3.1065l0,0.6254l-1.1345,-0.5212c-1.3202,-0.6255 -3.0324,-0.7088 -3.9813,-0.2085c-1.1552,0.6046 -1.8978,2.1474 -1.8978,3.8987c0,0.5629 -0.0413,1.0216 -0.0825,1.0216c-0.0413,0 -0.5157,-0.2085 -1.0727,-0.4378c-1.279,-0.5838 -2.888,-0.6046 -3.8369,-0.0417c-1.0933,0.6463 -1.6915,1.9598 -1.7122,3.7319l0,1.4803l-1.23767,-0.0834c-0.99016,-0.0626 -1.36147,0 -1.89781,0.3335c-1.13456,0.7297 -1.40273,1.3552 -1.40273,3.3567c0,1.6053 0.06188,1.9181 0.68073,3.1898c0.78388,1.6262 2.26913,3.2316 3.56868,3.9196c1.2171,0.6463 3.0118,0.6671 3.8369,0.0625c0.7633,-0.5629 1.3202,-1.7304 1.3615,-2.8979c0.0206,-0.5213 0.0619,-0.9382 0.0619,-0.9382c0.0206,0 0.4332,0.1459 0.9076,0.3127c2.9293,1.0424 5.1571,-0.7506 5.1571,-4.128l0,-0.9799l0.8871,0.4586c0.6394,0.3336 1.2377,0.4587 2.2278,0.4796c1.1552,0 1.4647,-0.0834 2.0835,-0.563c0.8664,-0.6671 1.3821,-1.6887 1.5471,-3.0856l0.1238,-1.0215l0.557,0.2918c1.0108,0.5213 2.1866,0.6047 3.1974,0.2085c3.7337,-1.4385 1.9597,-8.9024 -2.6611,-11.154c-1.0314,-0.5004 -2.3104,-0.6672 -3.0942,-0.417z"/>
  <path id="svg_5" fill="white" d="m124.967,66.5228c-2.909,1.0841 -5.322,4.5867 -5.322,7.714c0,1.6262 0.33,2.5435 1.217,3.2941c0.949,0.7922 1.939,0.9173 3.362,0.417l1.156,-0.3962l0.123,1.0425c0.392,3.1064 2.806,4.3991 5.776,3.0856l0.908,-0.417l0.082,1.2926c0.207,3.1273 2.331,4.7327 5.034,3.7945c0.536,-0.1876 0.99,-0.3336 1.011,-0.3336c0.02,0 0.103,0.5629 0.165,1.2509c0.123,1.5011 0.66,2.3351 1.794,2.7938c1.094,0.4378 1.403,0.4169 2.826,-0.1251c1.527,-0.5629 3.074,-2.1474 4.002,-4.0238c0.537,-1.105 0.681,-1.7096 0.743,-2.9814c0.103,-1.8972 -0.248,-2.7729 -1.382,-3.5443c-0.619,-0.4169 -0.908,-0.4795 -1.96,-0.3961l-1.238,0.0834l0,-1.6053c0,-1.3969 -0.082,-1.7096 -0.557,-2.4602c-0.99,-1.522 -2.516,-1.9806 -4.311,-1.3343c-0.619,0.2085 -1.279,0.4587 -1.465,0.5629c-0.33,0.1251 -0.371,0.0209 -0.371,-1.0216c0,-1.2301 -0.392,-2.4393 -0.99,-3.1064c-0.99,-1.105 -2.95,-1.3552 -4.662,-0.6047c-0.536,0.2502 -1.073,0.417 -1.155,0.3545c-0.083,-0.0417 -0.207,-0.4587 -0.289,-0.9174c-0.227,-1.4802 -1.712,-2.752 -3.156,-2.7103c-0.31,0 -0.928,0.1459 -1.341,0.2919z"/>
  <path id="svg_6" fill="white" d="m70.7555,73.1944l0,1.1258l3.0117,0.0626l3.0324,0.0625l-3.4243,4.274l-3.4449,4.274l0,1.2926l0,1.3135l5.3633,0l5.3634,0l0,-1.1467l0,-1.1467l-3.7131,0c-3.4862,0 -3.7131,-0.0208 -3.5274,-0.3753c0.1031,-0.1876 1.7327,-2.2516 3.5893,-4.5658c3.4037,-4.2115 3.4037,-4.2115 3.3831,-5.2122l-0.0413,-1.0008l-4.7858,-0.0625l-4.8064,-0.0417l0,1.1467z"/>
  <path id="svg_7" fill="white" d="m83.442,72.7774c-0.0619,0.3336 -0.2476,2.3142 -0.4126,4.3782c-0.165,2.0641 -0.3919,4.7327 -0.5157,5.9211c-0.1031,1.2092 -0.165,2.2308 -0.1031,2.2933c0.0618,0.0417 0.6601,0.146 1.3202,0.1877l1.217,0.0834l0.1238,-1.4177c0.2269,-2.481 0.2888,-2.627 1.3821,-3.586c0.557,-0.4795 1.0933,-0.8757 1.1758,-0.8757c0.0826,0 0.8045,1.4386 1.6091,3.1899l1.4646,3.169l1.5884,0.1876c0.8663,0.1043 1.609,0.146 1.6709,0.0834c0.0618,-0.0625 -0.8664,-1.9597 -2.0629,-4.2323c-1.1964,-2.2933 -2.166,-4.1906 -2.1453,-4.274c0,-0.0625 0.9282,-0.8964 2.0628,-1.8763c1.1346,-0.9591 2.3104,-2.0224 2.5992,-2.3351l0.5569,-0.5838l-0.7219,0c-0.392,0 -1.1552,-0.0625 -1.7328,-0.1251l-1.0315,-0.125l-2.8467,2.6477c-1.5677,1.4595 -2.8879,2.6061 -2.9292,2.5644c-0.0413,-0.0417 0.0206,-1.0841 0.1238,-2.3142c0.3094,-3.3775 0.33,-3.3566 -1.0933,-3.4817l-1.1965,-0.1043l-0.1031,0.6255z"/>
  <path id="svg_8" fill="white" d="m61.4933,72.9233c-2.0009,0.3127 -3.5275,1.522 -4.3938,3.3983c-0.6189,1.3552 -0.6602,4.42 -0.1032,6.0879c1.0933,3.2107 4.2288,4.8786 7.385,3.9404c2.0835,-0.6047 3.4243,-2.0015 3.8163,-4.0238c0.1444,-0.7297 0.0618,-0.7714 -1.5884,-1.0008l-0.9489,-0.1459l-0.1444,0.7505c-0.2888,1.522 -1.836,2.6061 -3.3419,2.3142c-1.774,-0.3335 -2.826,-2.2516 -2.8467,-5.2121c-0.0206,-1.376 0.0619,-1.793 0.4332,-2.3976c0.6189,-1.0216 1.4646,-1.4594 2.7642,-1.4594c0.9902,0 1.1346,0.0625 1.8978,0.8756l0.8046,0.8548l1.1139,-0.3544c0.5982,-0.1877 1.1552,-0.4378 1.1964,-0.5212c0.1857,-0.2919 -1.052,-1.8556 -1.8978,-2.4185c-0.6807,-0.4587 -1.1552,-0.6046 -2.6198,-0.8131c-0.2269,-0.0417 -0.9283,0.0209 -1.5265,0.1251z"/>
  <path id="svg_9" fill="white" d="m101.306,74.7789c-2.6196,0.5212 -4.4555,2.7728 -4.9713,6.0878c-0.5569,3.586 1.1346,6.4214 4.3523,7.3179c4.064,1.1675 7.303,-0.8548 8.231,-5.1079c0.33,-1.522 0.186,-3.8154 -0.309,-4.8786c-0.805,-1.6679 -2.661,-3.0231 -4.6,-3.3358c-1.527,-0.2502 -1.816,-0.2711 -2.703,-0.0834zm3.136,2.6061c0.371,0.1876 0.825,0.5003 1.031,0.688c1.96,1.7096 0.701,7.1094 -1.836,7.9433c-1.547,0.5212 -3.362,-0.2085 -4.1667,-1.6262c-1.114,-2.0014 -0.1857,-5.7751 1.6917,-6.9426c0.804,-0.5004 2.372,-0.5212 3.28,-0.0625z"/>
  <path id="svg_10" fill="white" d="m50.4778,75.2792c-0.557,0.1459 -1.0315,0.3127 -1.0727,0.3544c-0.0413,0.0417 0.4538,2.21 1.0933,4.8161l1.1552,4.7535l-0.3713,0.7088c-0.4332,0.7923 -1.5472,1.3552 -2.723,1.3552c-0.5569,0 -0.9076,-0.1668 -1.4027,-0.688c-0.6189,-0.6046 -0.7633,-1.0841 -1.7741,-5.1496c-0.5982,-2.4602 -1.1139,-4.5034 -1.1345,-4.5242c-0.0413,-0.0626 -2.4342,0.542 -2.5167,0.6254c-0.1031,0.1251 2.2073,8.9233 2.5786,9.7781c0.495,1.1467 1.4646,1.9181 2.7642,2.2517c0.8045,0.2084 1.2377,0.1876 2.496,-0.0834c2.0835,-0.4796 3.218,-1.0842 3.9607,-2.1683c0.5157,-0.7506 0.6188,-1.105 0.5982,-2.0849c0,-1.4177 -2.1247,-10.2576 -2.4342,-10.2367c-0.1237,0 -0.6807,0.1459 -1.217,0.2919z"/>
  <path id="svg_11" fill="white" d="m113.25,77.5725c0,0.1668 -1.857,12.7386 -1.939,13.093c-0.062,0.2919 0.144,0.4795 0.846,0.7923c1.877,0.8131 1.547,1.0424 4.806,-3.3567c1.609,-2.1891 2.971,-3.9404 2.991,-3.9195c0.042,0.0417 -0.206,2.1682 -0.536,4.7535c-0.31,2.5852 -0.578,4.816 -0.598,4.962c0,0.1459 0.392,0.4378 0.887,0.6463c1.815,0.7922 1.567,0.9382 3.692,-2.1057c1.073,-1.522 2.847,-4.0447 3.961,-5.5875l1.98,-2.7937l-1.238,-0.5004c-0.701,-0.2919 -1.278,-0.4795 -1.32,-0.4378c-0.371,0.5003 -4.621,6.8592 -4.827,7.2345c-0.165,0.271 -0.309,0.4587 -0.35,0.417c-0.042,-0.0417 0.185,-2.0015 0.536,-4.3366c0.701,-5.0245 0.701,-5.1288 0.247,-5.2747c-0.206,-0.0417 -0.845,-0.2919 -1.444,-0.5212l-1.052,-0.4378l-2.805,3.7736c-1.547,2.0848 -2.806,3.711 -2.806,3.6277c0,-0.0834 0.33,-2.0432 0.722,-4.3574c0.392,-2.3142 0.722,-4.3157 0.722,-4.4617c0,-0.2293 -0.515,-0.5212 -2.001,-1.1258c-0.268,-0.1042 -0.474,-0.1459 -0.474,-0.0834z"/>
  <path id="svg_12" fill="white" d="m33.7275,80.7832c-0.8871,0.3128 -6.2917,2.6895 -6.4361,2.8146c-0.0619,0.0626 5.1158,11.863 5.2809,12.0506c0.0825,0.0834 0.6601,-0.1042 1.2996,-0.417l1.1551,-0.5629l-1.1139,-2.5018c-1.1964,-2.6895 -1.1964,-2.6478 0.165,-3.0231c0.9489,-0.271 1.3821,-0.1043 4.2701,1.7304c2.1454,1.3552 2.166,1.3761 2.8467,1.0633c0.3714,-0.1459 1.0108,-0.4378 1.4028,-0.6046c0.3919,-0.1668 0.722,-0.3544 0.722,-0.3961c0,-0.0626 -0.9077,-0.7089 -2.001,-1.4386c-2.0835,-1.3968 -3.3212,-2.0223 -4.0019,-2.0223c-0.3094,0 -0.2063,-0.1668 0.4332,-0.7506c1.0727,-0.9799 1.4027,-2.0431 1.052,-3.3775c-0.6601,-2.5435 -2.5579,-3.5026 -5.0745,-2.5644zm2.0628,2.627c0.557,0.542 0.6601,1.3135 0.2888,2.0223c-0.2475,0.4587 -3.9194,2.3142 -4.1463,2.0849c-0.0825,-0.0834 -0.4126,-0.7714 -0.7633,-1.5428l-0.5982,-1.376l1.8772,-0.8548c2.2072,-0.9799 2.6611,-1.0425 3.3418,-0.3336z"/>
  <path id="svg_13" fill="white" d="m21.1442,87.3924c-0.6808,0.5212 -1.3821,1.0215 -1.5265,1.1258c-0.3095,0.1668 -0.2682,0.3127 2.6817,7.985l0.3919,1.0008l-3.1149,-2.5644c-4.6001,-3.7945 -3.9194,-3.4609 -5.1984,-2.5853c-2.2072,1.5637 -2.1247,1.4594 -1.6915,2.1266c0.2063,0.3336 1.9597,2.7937 3.8575,5.4415l3.4862,4.8576l0.9077,-0.688c0.4951,-0.354 0.9076,-0.75 0.9283,-0.834c0,-0.146 -2.9293,-4.3572 -5.3428,-7.6513c-0.6189,-0.8339 -0.8045,-0.9799 4.6001,3.586c1.6091,1.3553 2.9499,2.4603 3.0118,2.4603c0.0619,0 0.5363,-0.334 1.0727,-0.73l0.9901,-0.73l-0.3919,-0.9794c-0.2063,-0.563 -1.0933,-2.7938 -1.9597,-4.962c-0.8458,-2.1891 -1.4027,-3.7736 -1.2377,-3.5443c0.1856,0.2293 1.4852,2.0223 2.888,4.0029c1.4233,1.9807 2.661,3.6486 2.7642,3.7111c0.3094,0.1876 2.0834,-1.1675 1.8978,-1.4594c-0.4332,-0.7506 -7.55,-10.5286 -7.6532,-10.5286c-0.0618,0 -0.6807,0.4378 -1.3614,0.9591z"/>
  <path id="svg_14" fill="white" d="m133.156,89.3312c-2.681,0.7089 -5.425,3.8571 -5.796,6.7133c-0.392,2.898 2.207,6.2335 5.363,6.9005c2.414,0.522 4.704,-0.521 6.539,-2.9601c1.279,-1.7096 1.713,-2.9605 1.589,-4.6492c-0.145,-2.2934 -1.692,-4.4408 -3.981,-5.5666c-0.991,-0.4796 -2.744,-0.7089 -3.714,-0.4379zm3.177,2.8146c0.846,0.4587 1.836,1.6888 1.981,2.481c0.33,1.7513 -1.321,4.4825 -3.28,5.4622c-0.908,0.459 -1.3,0.542 -1.919,0.417c-2.331,-0.438 -3.63,-2.4808 -2.95,-4.6074c0.351,-1.0841 1.692,-2.898 2.641,-3.5234c0.907,-0.5838 2.62,-0.6881 3.527,-0.2294z"/>
  <path id="svg_28" d="m47.92154,5.73572" opacity="NaN" fill="white"/>
  <ellipse ry="2.21049" rx="1.57892" id="svg_31" cy="43.314" cx="101.28902" fill="white"/>
 </g>
</svg>