<svg width="53" height="50" viewBox="0 0 53 50" fill="none" xmlns="http://www.w3.org/2000/svg">
<path d="M7.86223 29.0741C10.1372 27.7175 13.6732 29.0593 15.6212 27.2708C16.6908 26.2888 16.0735 24.2879 16.9486 23.1312C17.4843 22.4231 18.2893 21.7894 19.1717 21.6529C21.7967 21.2469 23.789 23.2573 26.3774 23.8721C28.2392 24.3144 30.9978 23.7183 32.4863 24.9179C33.7114 25.9054 34.437 27.6907 34.3196 29.2493C34.2097 30.7078 32.3471 32.8168 32.2409 33.1479C32.1348 33.4791 32.736 36.169 34.0477 37.562C34.8316 38.3945 36.9038 38.6191 37.1253 39.7358C37.4661 41.4554 35.8021 42.2514 34.5458 43.4738C33.903 44.0992 32.3591 45.1783 31.4689 45.3177C29.4062 45.6404 27.8354 43.0612 25.7809 42.6721C24.0537 42.3449 22.1924 43.5434 20.5221 42.9944C18.692 42.3929 17.9443 39.8265 16.0936 39.2919C14.5366 38.842 12.7453 40.6377 11.2825 39.9404C8.19859 38.4702 5.68607 34.5872 5.98065 31.21C6.06302 30.2657 7.04552 29.5613 7.86226 29.0744L7.86223 29.0741Z" fill="#EDF0E3" stroke="#EDF0E3"/>
<path d="M14.2717 18.8487C13.3764 23.3635 10.6741 23.6755 8.48419 22.9733C6.29426 22.2711 5.57104 19.8565 6.64871 16.4957C7.72634 13.135 10.7356 11.0041 12.9256 11.7063C15.1155 12.4085 15.3493 15.488 14.2717 18.8487Z" fill="#EDF0E3"/>
<path d="M40.4385 16.0545C39.3232 20.6813 36.712 21.5704 34.5221 20.8682C32.3322 20.166 30.6907 17.4569 32.5082 13.5116C33.985 10.3057 35.9692 8.82363 38.1591 9.52584C40.3491 10.2281 41.5162 12.6937 40.4385 16.0545Z" fill="#EDF0E3"/>
<path d="M47.492 29.9469C46.5072 33.0183 44.4707 34.1208 42.2609 33.4848C37.1841 32.0238 39.8754 28.7223 40.8603 25.6509C41.8452 22.5795 43.5677 21.3037 45.7576 22.0059C47.9475 22.7081 48.4769 26.8754 47.492 29.9469Z" fill="#EDF0E3"/>
<path d="M28.6178 11.9244C27.4287 16.7811 24.7921 17.7497 22.6021 17.0475C20.4122 16.3453 18.803 13.5355 20.6874 9.38152C22.2186 6.00606 23.8998 4.89471 26.424 5.12856C28.7183 5.34103 29.7501 8.393 28.6178 11.9244Z" fill="#EDF0E3"/>
</svg>
